<svg id="visual" viewBox="0 0 1000 800" width="1000" height="800" xmlns="http://www.w3.org/2000/svg" xmlns:xlink="http://www.w3.org/1999/xlink" version="1.1"><rect x="0" y="0" width="1000" height="800" fill="#ffffff"></rect><defs><linearGradient id="grad1_0" x1="20%" y1="0%" x2="100%" y2="100%"><stop offset="25%" stop-color="#7e9dca" stop-opacity="1"></stop><stop offset="75%" stop-color="#7e9dca" stop-opacity="1"></stop></linearGradient></defs><defs><linearGradient id="grad1_1" x1="20%" y1="0%" x2="100%" y2="100%"><stop offset="25%" stop-color="#7e9dca" stop-opacity="1"></stop><stop offset="75%" stop-color="#aabddc" stop-opacity="1"></stop></linearGradient></defs><defs><linearGradient id="grad1_2" x1="20%" y1="0%" x2="100%" y2="100%"><stop offset="25%" stop-color="#d5dded" stop-opacity="1"></stop><stop offset="75%" stop-color="#aabddc" stop-opacity="1"></stop></linearGradient></defs><defs><linearGradient id="grad1_3" x1="20%" y1="0%" x2="100%" y2="100%"><stop offset="25%" stop-color="#d5dded" stop-opacity="1"></stop><stop offset="75%" stop-color="#ffffff" stop-opacity="1"></stop></linearGradient></defs><defs><linearGradient id="grad2_0" x1="0%" y1="0%" x2="80%" y2="100%"><stop offset="25%" stop-color="#7e9dca" stop-opacity="1"></stop><stop offset="75%" stop-color="#7e9dca" stop-opacity="1"></stop></linearGradient></defs><defs><linearGradient id="grad2_1" x1="0%" y1="0%" x2="80%" y2="100%"><stop offset="25%" stop-color="#aabddc" stop-opacity="1"></stop><stop offset="75%" stop-color="#7e9dca" stop-opacity="1"></stop></linearGradient></defs><defs><linearGradient id="grad2_2" x1="0%" y1="0%" x2="80%" y2="100%"><stop offset="25%" stop-color="#aabddc" stop-opacity="1"></stop><stop offset="75%" stop-color="#d5dded" stop-opacity="1"></stop></linearGradient></defs><defs><linearGradient id="grad2_3" x1="0%" y1="0%" x2="80%" y2="100%"><stop offset="25%" stop-color="#ffffff" stop-opacity="1"></stop><stop offset="75%" stop-color="#d5dded" stop-opacity="1"></stop></linearGradient></defs><g transform="translate(1000, 0)"><path d="M0 256.1C-8.9 222.1 -17.9 188.1 -28.8 181.7C-39.7 175.4 -52.6 196.7 -68.6 211.1C-84.6 225.6 -103.8 233.1 -116.3 228.2C-128.8 223.4 -134.7 206.2 -138.1 190.1C-141.6 174.1 -142.5 159.1 -147.8 147.8C-153.1 136.4 -162.6 128.7 -158.6 115.2C-154.5 101.7 -136.8 82.6 -148.8 75.8C-160.8 69.1 -202.4 74.7 -211.1 68.6C-219.8 62.5 -195.5 44.7 -197.5 31.3C-199.5 17.9 -227.8 8.9 -256.1 0L0 0Z" fill="#eaeef6"></path><path d="M0 192.1C-6.7 166.6 -13.4 141.1 -21.6 136.3C-29.8 131.5 -39.4 147.5 -51.5 158.4C-63.5 169.2 -77.8 174.8 -87.2 171.2C-96.6 167.5 -101 154.6 -103.6 142.6C-106.2 130.5 -106.9 119.3 -110.8 110.8C-114.8 102.3 -122 96.5 -118.9 86.4C-115.9 76.3 -102.6 61.9 -111.6 56.9C-120.6 51.8 -151.8 56 -158.4 51.5C-164.9 46.9 -146.7 33.5 -148.2 23.5C-149.7 13.4 -170.9 6.7 -192.1 0L0 0Z" fill="#bfcde5"></path><path d="M0 128.1C-4.5 111.1 -8.9 94 -14.4 90.9C-19.8 87.7 -26.3 98.4 -34.3 105.6C-42.3 112.8 -51.9 116.5 -58.1 114.1C-64.4 111.7 -67.3 103.1 -69.1 95.1C-70.8 87 -71.3 79.6 -73.9 73.9C-76.5 68.2 -81.3 64.3 -79.3 57.6C-77.3 50.9 -68.4 41.3 -74.4 37.9C-80.4 34.5 -101.2 37.3 -105.6 34.3C-109.9 31.3 -97.8 22.3 -98.8 15.6C-99.8 8.9 -113.9 4.5 -128.1 0L0 0Z" fill="#94add3"></path><path d="M0 64C-2.2 55.5 -4.5 47 -7.2 45.4C-9.9 43.8 -13.1 49.2 -17.2 52.8C-21.2 56.4 -25.9 58.3 -29.1 57.1C-32.2 55.8 -33.7 51.5 -34.5 47.5C-35.4 43.5 -35.6 39.8 -36.9 36.9C-38.3 34.1 -40.7 32.2 -39.6 28.8C-38.6 25.4 -34.2 20.6 -37.2 19C-40.2 17.3 -50.6 18.7 -52.8 17.2C-55 15.6 -48.9 11.2 -49.4 7.8C-49.9 4.5 -57 2.2 -64 0L0 0Z" fill="#7e9dca"></path></g><g transform="translate(0, 800)"><path d="M0 -256.1C14 -252.9 28 -249.7 36.6 -231.1C45.2 -212.6 48.4 -178.7 52.2 -160.7C56.1 -142.8 60.7 -140.7 77.6 -152.4C94.6 -164 124 -189.4 140.5 -193.4C157 -197.3 160.7 -179.9 166.9 -166.9C173 -153.9 181.7 -145.3 183.6 -133.4C185.6 -121.6 181 -106.5 192.5 -98.1C203.9 -89.7 231.5 -88 243.6 -79.1C255.7 -70.3 252.3 -54.3 251.9 -39.9C251.4 -25.5 253.7 -12.8 256.1 0L0 0Z" fill="#eaeef6"></path><path d="M0 -192.1C10.5 -189.7 21 -187.3 27.5 -173.3C33.9 -159.4 36.3 -134 39.2 -120.5C42.1 -107.1 45.5 -105.5 58.2 -114.3C70.9 -123 93 -142 105.4 -145C117.8 -148 120.5 -134.9 125.2 -125.2C129.8 -115.4 136.2 -109 137.7 -100.1C139.2 -91.2 135.7 -79.8 144.3 -73.5C152.9 -67.3 173.6 -66 182.7 -59.4C191.8 -52.7 189.3 -40.7 188.9 -29.9C188.5 -19.1 190.3 -9.6 192.1 0L0 0Z" fill="#bfcde5"></path><path d="M0 -128.1C7 -126.4 14 -124.8 18.3 -115.6C22.6 -106.3 24.2 -89.3 26.1 -80.4C28 -71.4 30.3 -70.4 38.8 -76.2C47.3 -82 62 -94.7 70.2 -96.7C78.5 -98.7 80.4 -89.9 83.4 -83.4C86.5 -76.9 90.8 -72.6 91.8 -66.7C92.8 -60.8 90.5 -53.2 96.2 -49C102 -44.8 115.7 -44 121.8 -39.6C127.8 -35.1 126.2 -27.1 125.9 -19.9C125.7 -12.8 126.9 -6.4 128.1 0L0 0Z" fill="#94add3"></path><path d="M0 -64C3.5 -63.2 7 -62.4 9.2 -57.8C11.3 -53.1 12.1 -44.7 13.1 -40.2C14 -35.7 15.2 -35.2 19.4 -38.1C23.6 -41 31 -47.3 35.1 -48.3C39.3 -49.3 40.2 -45 41.7 -41.7C43.3 -38.5 45.4 -36.3 45.9 -33.4C46.4 -30.4 45.2 -26.6 48.1 -24.5C51 -22.4 57.9 -22 60.9 -19.8C63.9 -17.6 63.1 -13.6 63 -10C62.8 -6.4 63.4 -3.2 64 0L0 0Z" fill="#7e9dca"></path></g></svg>