<svg id="visual" viewBox="0 0 1920 1080" width="1920" height="1080" xmlns="http://www.w3.org/2000/svg" xmlns:xlink="http://www.w3.org/1999/xlink" version="1.1"><rect x="0" y="0" width="1920" height="1080" fill="#f0fdf4"></rect><defs><linearGradient id="grad1_0" x1="43.8%" y1="100%" x2="100%" y2="0%"><stop offset="14.444444444444446%" stop-color="#7be99c" stop-opacity="1"></stop><stop offset="85.55555555555554%" stop-color="#7be99c" stop-opacity="1"></stop></linearGradient></defs><defs><linearGradient id="grad1_1" x1="43.8%" y1="100%" x2="100%" y2="0%"><stop offset="14.444444444444446%" stop-color="#7be99c" stop-opacity="1"></stop><stop offset="85.55555555555554%" stop-color="#b7f4c9" stop-opacity="1"></stop></linearGradient></defs><defs><linearGradient id="grad1_2" x1="43.8%" y1="100%" x2="100%" y2="0%"><stop offset="14.444444444444446%" stop-color="#f0fdf4" stop-opacity="1"></stop><stop offset="85.55555555555554%" stop-color="#b7f4c9" stop-opacity="1"></stop></linearGradient></defs><defs><linearGradient id="grad2_0" x1="0%" y1="100%" x2="56.3%" y2="0%"><stop offset="14.444444444444446%" stop-color="#7be99c" stop-opacity="1"></stop><stop offset="85.55555555555554%" stop-color="#7be99c" stop-opacity="1"></stop></linearGradient></defs><defs><linearGradient id="grad2_1" x1="0%" y1="100%" x2="56.3%" y2="0%"><stop offset="14.444444444444446%" stop-color="#b7f4c9" stop-opacity="1"></stop><stop offset="85.55555555555554%" stop-color="#7be99c" stop-opacity="1"></stop></linearGradient></defs><defs><linearGradient id="grad2_2" x1="0%" y1="100%" x2="56.3%" y2="0%"><stop offset="14.444444444444446%" stop-color="#b7f4c9" stop-opacity="1"></stop><stop offset="85.55555555555554%" stop-color="#f0fdf4" stop-opacity="1"></stop></linearGradient></defs><g transform="translate(1920, 1080)"><path d="M-432 0C-396.2 -21.8 -360.5 -43.6 -356 -70.8C-351.6 -98 -378.4 -130.7 -380.6 -157.7C-382.9 -184.6 -360.7 -205.9 -345.9 -231.1C-331.1 -256.3 -323.7 -285.4 -305.5 -305.5C-287.2 -325.5 -258.1 -336.5 -230 -344.2C-201.9 -351.9 -174.9 -356.3 -149.6 -361.2C-124.4 -366.2 -100.9 -371.6 -76.3 -383.5C-51.6 -395.4 -25.8 -413.7 0 -432L0 0Z" fill="#d4f9df"></path><path d="M-288 0C-264.2 -14.5 -240.3 -29.1 -237.4 -47.2C-234.4 -65.4 -252.2 -87.1 -253.8 -105.1C-255.3 -123.1 -240.5 -137.3 -230.6 -154.1C-220.7 -170.9 -215.8 -190.3 -203.6 -203.6C-191.5 -217 -172.1 -224.4 -153.3 -229.5C-134.6 -234.6 -116.6 -237.5 -99.8 -240.8C-82.9 -244.1 -67.3 -247.7 -50.9 -255.7C-34.4 -263.6 -17.2 -275.8 0 -288L0 0Z" fill="#9aefb3"></path><path d="M-144 0C-132.1 -7.3 -120.2 -14.5 -118.7 -23.6C-117.2 -32.7 -126.1 -43.6 -126.9 -52.6C-127.6 -61.5 -120.2 -68.6 -115.3 -77C-110.4 -85.4 -107.9 -95.1 -101.8 -101.8C-95.7 -108.5 -86 -112.2 -76.7 -114.7C-67.3 -117.3 -58.3 -118.8 -49.9 -120.4C-41.5 -122.1 -33.6 -123.9 -25.4 -127.8C-17.2 -131.8 -8.6 -137.9 0 -144L0 0Z" fill="#7be99c"></path></g><g transform="translate(0, 0)"><path d="M432 0C435.4 31.5 438.7 62.9 413.9 82.3C389 101.7 336 109.1 328 135.9C320 162.6 357 208.8 359.2 240C361.4 271.2 328.9 287.4 299.1 299.1C269.3 310.8 242.3 318 214.5 320.9C186.6 323.9 157.8 322.4 133.6 322.4C109.3 322.4 89.6 323.8 68.1 342.3C46.6 360.8 23.3 396.4 0 432L0 0Z" fill="#d4f9df"></path><path d="M288 0C290.2 21 292.5 41.9 275.9 54.9C259.4 67.8 224 72.7 218.7 90.6C213.3 108.4 238 139.2 239.5 160C241 180.8 219.3 191.6 199.4 199.4C179.6 207.2 161.6 212 143 214C124.4 215.9 105.2 215 89 215C72.9 214.9 59.7 215.9 45.4 228.2C31.1 240.5 15.5 264.3 0 288L0 0Z" fill="#9aefb3"></path><path d="M144 0C145.1 10.5 146.2 21 138 27.4C129.7 33.9 112 36.4 109.3 45.3C106.7 54.2 119 69.6 119.7 80C120.5 90.4 109.6 95.8 99.7 99.7C89.8 103.6 80.8 106 71.5 107C62.2 108 52.6 107.5 44.5 107.5C36.4 107.5 29.9 107.9 22.7 114.1C15.5 120.3 7.8 132.1 0 144L0 0Z" fill="#7be99c"></path></g></svg>