<svg id="visual" viewBox="0 0 1000 800" width="1000" height="800" xmlns="http://www.w3.org/2000/svg" xmlns:xlink="http://www.w3.org/1999/xlink" version="1.1"><rect x="0" y="0" width="1000" height="800" fill="#ffffff"></rect><defs><linearGradient id="grad1_0" x1="20%" y1="100%" x2="100%" y2="0%"><stop offset="25%" stop-color="#fef08a" stop-opacity="1"></stop><stop offset="75%" stop-color="#fef08a" stop-opacity="1"></stop></linearGradient></defs><defs><linearGradient id="grad1_1" x1="20%" y1="100%" x2="100%" y2="0%"><stop offset="25%" stop-color="#fef08a" stop-opacity="1"></stop><stop offset="75%" stop-color="#fff5b2" stop-opacity="1"></stop></linearGradient></defs><defs><linearGradient id="grad1_2" x1="20%" y1="100%" x2="100%" y2="0%"><stop offset="25%" stop-color="#fffad8" stop-opacity="1"></stop><stop offset="75%" stop-color="#fff5b2" stop-opacity="1"></stop></linearGradient></defs><defs><linearGradient id="grad1_3" x1="20%" y1="100%" x2="100%" y2="0%"><stop offset="25%" stop-color="#fffad8" stop-opacity="1"></stop><stop offset="75%" stop-color="#ffffff" stop-opacity="1"></stop></linearGradient></defs><defs><linearGradient id="grad2_0" x1="0%" y1="100%" x2="80%" y2="0%"><stop offset="25%" stop-color="#fef08a" stop-opacity="1"></stop><stop offset="75%" stop-color="#fef08a" stop-opacity="1"></stop></linearGradient></defs><defs><linearGradient id="grad2_1" x1="0%" y1="100%" x2="80%" y2="0%"><stop offset="25%" stop-color="#fff5b2" stop-opacity="1"></stop><stop offset="75%" stop-color="#fef08a" stop-opacity="1"></stop></linearGradient></defs><defs><linearGradient id="grad2_2" x1="0%" y1="100%" x2="80%" y2="0%"><stop offset="25%" stop-color="#fff5b2" stop-opacity="1"></stop><stop offset="75%" stop-color="#fffad8" stop-opacity="1"></stop></linearGradient></defs><defs><linearGradient id="grad2_3" x1="0%" y1="100%" x2="80%" y2="0%"><stop offset="25%" stop-color="#ffffff" stop-opacity="1"></stop><stop offset="75%" stop-color="#fffad8" stop-opacity="1"></stop></linearGradient></defs><g transform="translate(1000, 800)"><path d="M-320.2 0C-277.5 -9.3 -234.9 -18.6 -243 -38.5C-251 -58.3 -309.7 -88.7 -304.5 -98.9C-299.3 -109.1 -230.3 -99.1 -205.8 -104.9C-181.4 -110.7 -201.5 -132.2 -209.5 -152.2C-217.5 -172.2 -213.3 -190.7 -207.9 -207.9C-202.4 -225.1 -195.7 -241.2 -183.4 -252.4C-171 -263.6 -153 -270 -132.6 -260.2C-112.1 -250.3 -89.2 -224.3 -76.3 -234.9C-63.5 -245.5 -60.6 -292.8 -49.6 -313.1C-38.5 -333.4 -19.3 -326.8 0 -320.2L0 0Z" fill="#fffcec"></path><path d="M-240.1 0C-208.2 -7 -176.2 -14 -182.2 -28.9C-188.3 -43.8 -232.3 -66.6 -228.4 -74.2C-224.5 -81.8 -172.7 -74.3 -154.4 -78.7C-136 -83 -151.2 -99.2 -157.2 -114.2C-163.1 -129.2 -160 -143 -155.9 -155.9C-151.8 -168.8 -146.8 -180.9 -137.5 -189.3C-128.3 -197.7 -114.8 -202.5 -99.4 -195.1C-84.1 -187.8 -66.9 -168.2 -57.2 -176.2C-47.6 -184.1 -45.5 -219.6 -37.2 -234.8C-28.9 -250.1 -14.5 -245.1 0 -240.1L0 0Z" fill="#fff7c5"></path><path d="M-160.1 0C-138.8 -4.7 -117.5 -9.3 -121.5 -19.2C-125.5 -29.2 -154.8 -44.4 -152.2 -49.5C-149.7 -54.6 -115.1 -49.5 -102.9 -52.4C-90.7 -55.3 -100.8 -66.1 -104.8 -76.1C-108.8 -86.1 -106.7 -95.3 -103.9 -103.9C-101.2 -112.6 -97.9 -120.6 -91.7 -126.2C-85.5 -131.8 -76.5 -135 -66.3 -130.1C-56.1 -125.2 -44.6 -112.2 -38.2 -117.5C-31.7 -122.8 -30.3 -146.4 -24.8 -156.5C-19.3 -166.7 -9.6 -163.4 0 -160.1L0 0Z" fill="#fff29e"></path><path d="M-80 0C-69.4 -2.3 -58.7 -4.7 -60.7 -9.6C-62.8 -14.6 -77.4 -22.2 -76.1 -24.7C-74.8 -27.3 -57.6 -24.8 -51.5 -26.2C-45.3 -27.7 -50.4 -33.1 -52.4 -38.1C-54.4 -43.1 -53.3 -47.7 -52 -52C-50.6 -56.3 -48.9 -60.3 -45.8 -63.1C-42.8 -65.9 -38.3 -67.5 -33.1 -65C-28 -62.6 -22.3 -56.1 -19.1 -58.7C-15.9 -61.4 -15.2 -73.2 -12.4 -78.3C-9.6 -83.4 -4.8 -81.7 0 -80L0 0Z" fill="#fef08a"></path></g><g transform="translate(0, 0)"><path d="M320.2 0C273.3 10.7 226.5 21.5 210.4 33.3C194.3 45.2 208.9 58.2 210.2 68.3C211.4 78.4 199.3 85.7 204 104C208.7 122.3 230.3 151.6 230.6 167.5C230.9 183.4 210 185.9 199.4 199.4C188.8 212.9 188.6 237.3 175.7 241.9C162.9 246.5 137.3 231.3 124.4 244.1C111.4 257 111.1 297.8 98.9 304.5C86.8 311.1 62.9 283.6 44.4 280.5C26 277.4 13 298.8 0 320.2L0 0Z" fill="#fffcec"></path><path d="M240.1 0C205 8 169.9 16.1 157.8 25C145.7 33.9 156.7 43.6 157.6 51.2C158.6 58.8 149.5 64.3 153 78C156.6 91.7 172.7 113.7 172.9 125.6C173.2 137.6 157.5 139.5 149.6 149.6C141.6 159.6 141.5 178 131.8 181.4C122.2 184.9 103 173.5 93.3 183.1C83.6 192.7 83.3 223.4 74.2 228.4C65.1 233.4 47.2 212.7 33.3 210.4C19.5 208.1 9.7 224.1 0 240.1L0 0Z" fill="#fff7c5"></path><path d="M160.1 0C136.7 5.4 113.2 10.7 105.2 16.7C97.1 22.6 104.5 29.1 105.1 34.1C105.7 39.2 99.7 42.8 102 52C104.4 61.1 115.1 75.8 115.3 83.8C115.4 91.7 105 93 99.7 99.7C94.4 106.4 94.3 118.6 87.9 120.9C81.4 123.3 68.7 115.7 62.2 122.1C55.7 128.5 55.5 148.9 49.5 152.2C43.4 155.6 31.4 141.8 22.2 140.3C13 138.7 6.5 149.4 0 160.1L0 0Z" fill="#fff29e"></path><path d="M80 0C68.3 2.7 56.6 5.4 52.6 8.3C48.6 11.3 52.2 14.5 52.5 17.1C52.9 19.6 49.8 21.4 51 26C52.2 30.6 57.6 37.9 57.6 41.9C57.7 45.9 52.5 46.5 49.9 49.9C47.2 53.2 47.2 59.3 43.9 60.5C40.7 61.6 34.3 57.8 31.1 61C27.9 64.2 27.8 74.5 24.7 76.1C21.7 77.8 15.7 70.9 11.1 70.1C6.5 69.4 3.2 74.7 0 80L0 0Z" fill="#fef08a"></path></g></svg>