<svg id="visual" viewBox="0 0 1000 800" width="1000" height="800" xmlns="http://www.w3.org/2000/svg" xmlns:xlink="http://www.w3.org/1999/xlink" version="1.1"><rect x="0" y="0" width="1000" height="800" fill="#ffffff"></rect><defs><linearGradient id="grad1_0" x1="20%" y1="0%" x2="100%" y2="100%"><stop offset="25%" stop-color="#295ba7" stop-opacity="1"></stop><stop offset="75%" stop-color="#295ba7" stop-opacity="1"></stop></linearGradient></defs><defs><linearGradient id="grad1_1" x1="20%" y1="0%" x2="100%" y2="100%"><stop offset="25%" stop-color="#295ba7" stop-opacity="1"></stop><stop offset="75%" stop-color="#9da9d3" stop-opacity="1"></stop></linearGradient></defs><defs><linearGradient id="grad1_2" x1="20%" y1="0%" x2="100%" y2="100%"><stop offset="25%" stop-color="#ffffff" stop-opacity="1"></stop><stop offset="75%" stop-color="#9da9d3" stop-opacity="1"></stop></linearGradient></defs><defs><linearGradient id="grad2_0" x1="0%" y1="0%" x2="80%" y2="100%"><stop offset="25%" stop-color="#295ba7" stop-opacity="1"></stop><stop offset="75%" stop-color="#295ba7" stop-opacity="1"></stop></linearGradient></defs><defs><linearGradient id="grad2_1" x1="0%" y1="0%" x2="80%" y2="100%"><stop offset="25%" stop-color="#9da9d3" stop-opacity="1"></stop><stop offset="75%" stop-color="#295ba7" stop-opacity="1"></stop></linearGradient></defs><defs><linearGradient id="grad2_2" x1="0%" y1="0%" x2="80%" y2="100%"><stop offset="25%" stop-color="#9da9d3" stop-opacity="1"></stop><stop offset="75%" stop-color="#ffffff" stop-opacity="1"></stop></linearGradient></defs><g transform="translate(1000, 0)"><path d="M0 256.1C-9.3 228 -18.6 199.9 -31 195.6C-43.3 191.2 -58.6 210.7 -68.3 210.2C-78 209.7 -81.9 189.3 -94.4 185.3C-106.9 181.4 -127.9 193.9 -137 188.5C-146 183.1 -143.2 159.7 -147.8 147.8C-152.4 135.8 -164.5 135.2 -182.8 132.8C-201.1 130.4 -225.6 126.2 -217.4 110.8C-209.2 95.3 -168.5 68.6 -174 56.6C-179.6 44.5 -231.6 47.1 -253 40.1C-274.4 33.1 -265.3 16.5 -256.1 0L0 0Z" fill="#ced3e9"></path><path d="M0 170.7C-6.2 152 -12.4 133.3 -20.6 130.4C-28.9 127.5 -39.1 140.4 -45.5 140.1C-52 139.8 -54.6 126.2 -63 123.6C-71.3 120.9 -85.3 129.3 -91.3 125.7C-97.3 122.1 -95.4 106.5 -98.5 98.5C-101.6 90.5 -109.7 90.2 -121.9 88.6C-134.1 87 -150.4 84.2 -144.9 73.8C-139.5 63.5 -112.3 45.7 -116 37.7C-119.7 29.7 -154.4 31.4 -168.6 26.7C-182.9 22.1 -176.8 11 -170.7 0L0 0Z" fill="#6a81bd"></path><path d="M0 85.4C-3.1 76 -6.2 66.6 -10.3 65.2C-14.4 63.7 -19.5 70.2 -22.8 70.1C-26 69.9 -27.3 63.1 -31.5 61.8C-35.6 60.5 -42.6 64.6 -45.7 62.8C-48.7 61 -47.7 53.2 -49.3 49.3C-50.8 45.3 -54.8 45.1 -60.9 44.3C-67 43.5 -75.2 42.1 -72.5 36.9C-69.7 31.8 -56.2 22.9 -58 18.9C-59.9 14.8 -77.2 15.7 -84.3 13.4C-91.5 11 -88.4 5.5 -85.4 0L0 0Z" fill="#295ba7"></path></g><g transform="translate(0, 800)"><path d="M0 -256.1C13.4 -248.3 26.8 -240.5 35 -221.2C43.3 -202 46.3 -171.3 51.3 -157.9C56.3 -144.5 63.4 -148.3 84 -164.8C104.6 -181.3 138.9 -210.5 150.5 -207.2C162.2 -204 151.4 -168.3 145.7 -145.7C140 -123 139.4 -113.4 147.2 -107C155.1 -100.6 171.2 -97.5 173.7 -88.5C176.3 -79.5 165.2 -64.7 170.2 -55.3C175.3 -45.9 196.3 -42.1 213.3 -33.8C230.3 -25.5 243.2 -12.7 256.1 0L0 0Z" fill="#ced3e9"></path><path d="M0 -170.7C8.9 -165.5 17.9 -160.3 23.4 -147.5C28.8 -134.7 30.8 -114.2 34.2 -105.3C37.5 -96.3 42.2 -98.9 56 -109.9C69.7 -120.9 92.6 -140.3 100.4 -138.1C108.2 -136 100.9 -112.2 97.1 -97.1C93.3 -82 93 -75.6 98.2 -71.3C103.4 -67.1 114.1 -65 115.8 -59C117.5 -53 110.1 -43.1 113.5 -36.9C116.8 -30.6 130.9 -28.1 142.2 -22.5C153.6 -17 162.2 -8.5 170.7 0L0 0Z" fill="#6a81bd"></path><path d="M0 -85.4C4.5 -82.8 8.9 -80.2 11.7 -73.7C14.4 -67.3 15.4 -57.1 17.1 -52.6C18.8 -48.2 21.1 -49.4 28 -54.9C34.9 -60.4 46.3 -70.2 50.2 -69.1C54.1 -68 50.5 -56.1 48.6 -48.6C46.7 -41 46.5 -37.8 49.1 -35.7C51.7 -33.5 57.1 -32.5 57.9 -29.5C58.8 -26.5 55.1 -21.6 56.7 -18.4C58.4 -15.3 65.4 -14 71.1 -11.3C76.8 -8.5 81.1 -4.2 85.4 0L0 0Z" fill="#295ba7"></path></g></svg>