<svg id="visual" viewBox="0 0 1920 1080" width="1920" height="1080" xmlns="http://www.w3.org/2000/svg" xmlns:xlink="http://www.w3.org/1999/xlink" version="1.1"><rect x="0" y="0" width="1920" height="1080" fill="#ffffff"></rect><defs><linearGradient id="grad1_0" x1="43.8%" y1="0%" x2="100%" y2="100%"><stop offset="14.444444444444446%" stop-color="#7e9dca" stop-opacity="1"></stop><stop offset="85.55555555555554%" stop-color="#7e9dca" stop-opacity="1"></stop></linearGradient></defs><defs><linearGradient id="grad1_1" x1="43.8%" y1="0%" x2="100%" y2="100%"><stop offset="14.444444444444446%" stop-color="#7e9dca" stop-opacity="1"></stop><stop offset="85.55555555555554%" stop-color="#aabddc" stop-opacity="1"></stop></linearGradient></defs><defs><linearGradient id="grad1_2" x1="43.8%" y1="0%" x2="100%" y2="100%"><stop offset="14.444444444444446%" stop-color="#d5dded" stop-opacity="1"></stop><stop offset="85.55555555555554%" stop-color="#aabddc" stop-opacity="1"></stop></linearGradient></defs><defs><linearGradient id="grad1_3" x1="43.8%" y1="0%" x2="100%" y2="100%"><stop offset="14.444444444444446%" stop-color="#d5dded" stop-opacity="1"></stop><stop offset="85.55555555555554%" stop-color="#ffffff" stop-opacity="1"></stop></linearGradient></defs><defs><linearGradient id="grad2_0" x1="0%" y1="0%" x2="56.3%" y2="100%"><stop offset="14.444444444444446%" stop-color="#7e9dca" stop-opacity="1"></stop><stop offset="85.55555555555554%" stop-color="#7e9dca" stop-opacity="1"></stop></linearGradient></defs><defs><linearGradient id="grad2_1" x1="0%" y1="0%" x2="56.3%" y2="100%"><stop offset="14.444444444444446%" stop-color="#aabddc" stop-opacity="1"></stop><stop offset="85.55555555555554%" stop-color="#7e9dca" stop-opacity="1"></stop></linearGradient></defs><defs><linearGradient id="grad2_2" x1="0%" y1="0%" x2="56.3%" y2="100%"><stop offset="14.444444444444446%" stop-color="#aabddc" stop-opacity="1"></stop><stop offset="85.55555555555554%" stop-color="#d5dded" stop-opacity="1"></stop></linearGradient></defs><defs><linearGradient id="grad2_3" x1="0%" y1="0%" x2="56.3%" y2="100%"><stop offset="14.444444444444446%" stop-color="#ffffff" stop-opacity="1"></stop><stop offset="85.55555555555554%" stop-color="#d5dded" stop-opacity="1"></stop></linearGradient></defs><g transform="translate(1920, 0)"><path d="M0 432C-12.6 365.2 -25.1 298.4 -46.9 296.3C-68.8 294.2 -99.8 356.8 -116.8 359.5C-133.8 362.2 -136.6 305 -137.6 270C-138.5 234.9 -137.5 222.1 -175.7 241.9C-214 261.7 -291.4 314.1 -304.8 304.8C-318.1 295.4 -267.5 224.2 -266.2 193.4C-264.9 162.6 -313 172.2 -309.2 157.5C-305.4 142.9 -249.7 103.9 -270.1 87.8C-290.5 71.6 -387 78.4 -426.7 67.6C-466.3 56.8 -449.2 28.4 -432 0L0 0Z" fill="#eaeef6"></path><path d="M0 324C-9.4 273.9 -18.8 223.8 -35.2 222.2C-51.6 220.7 -74.9 267.6 -87.6 269.6C-100.3 271.6 -102.5 228.8 -103.2 202.5C-103.9 176.2 -103.1 166.6 -131.8 181.4C-160.5 196.3 -218.5 235.6 -228.6 228.6C-238.6 221.5 -200.6 168.1 -199.6 145C-198.7 121.9 -234.7 129.2 -231.9 118.2C-229 107.1 -187.3 77.9 -202.6 65.8C-217.9 53.7 -290.3 58.8 -320 50.7C-349.8 42.6 -336.9 21.3 -324 0L0 0Z" fill="#bfcde5"></path><path d="M0 216C-6.3 182.6 -12.6 149.2 -23.5 148.2C-34.4 147.1 -49.9 178.4 -58.4 179.7C-66.9 181.1 -68.3 152.5 -68.8 135C-69.2 117.5 -68.8 111 -87.9 120.9C-107 130.8 -145.7 157.1 -152.4 152.4C-159.1 147.7 -133.7 112.1 -133.1 96.7C-132.4 81.3 -156.5 86.1 -154.6 78.8C-152.7 71.4 -124.8 51.9 -135.1 43.9C-145.3 35.8 -193.5 39.2 -213.3 33.8C-233.2 28.4 -224.6 14.2 -216 0L0 0Z" fill="#94add3"></path><path d="M0 108C-3.1 91.3 -6.3 74.6 -11.7 74.1C-17.2 73.6 -25 89.2 -29.2 89.9C-33.4 90.5 -34.2 76.3 -34.4 67.5C-34.6 58.7 -34.4 55.5 -43.9 60.5C-53.5 65.4 -72.8 78.5 -76.2 76.2C-79.5 73.8 -66.9 56 -66.5 48.3C-66.2 40.6 -78.2 43.1 -77.3 39.4C-76.3 35.7 -62.4 26 -67.5 21.9C-72.6 17.9 -96.8 19.6 -106.7 16.9C-116.6 14.2 -112.3 7.1 -108 0L0 0Z" fill="#7e9dca"></path></g><g transform="translate(0, 1080)"><path d="M0 -432C15.2 -388.3 30.3 -344.5 55.5 -350.6C80.7 -356.7 115.9 -412.7 133.5 -410.9C151.1 -409 151 -349.4 167.1 -327.9C183.1 -306.4 215.3 -323.1 225.7 -310.7C236.1 -298.2 224.9 -256.7 243.2 -243.2C261.6 -229.7 309.6 -244.2 310.7 -225.7C311.7 -207.2 265.7 -155.7 250.4 -127.6C235 -99.5 250.2 -94.8 267.2 -86.8C284.3 -78.8 303.1 -67.4 330.9 -52.4C358.6 -37.4 395.3 -18.7 432 0L0 0Z" fill="#eaeef6"></path><path d="M0 -324C11.4 -291.2 22.8 -258.4 41.7 -263C60.5 -267.6 86.9 -309.5 100.1 -308.1C113.3 -306.8 113.3 -262 125.3 -245.9C137.3 -229.8 161.5 -242.3 169.3 -233C177.1 -223.7 168.7 -192.6 182.4 -182.4C196.2 -172.3 232.2 -183.2 233 -169.3C233.8 -155.4 199.3 -116.7 187.8 -95.7C176.3 -74.6 187.7 -71.1 200.4 -65.1C213.2 -59.1 227.3 -50.6 248.2 -39.3C269 -28 296.5 -14 324 0L0 0Z" fill="#bfcde5"></path><path d="M0 -216C7.6 -194.1 15.2 -172.3 27.8 -175.3C40.4 -178.4 58 -206.3 66.7 -205.4C75.5 -204.5 75.5 -174.7 83.5 -163.9C91.6 -153.2 107.6 -161.5 112.9 -155.3C118.1 -149.1 112.4 -128.4 121.6 -121.6C130.8 -114.9 154.8 -122.1 155.3 -112.9C155.8 -103.6 132.9 -77.8 125.2 -63.8C117.5 -49.7 125.1 -47.4 133.6 -43.4C142.1 -39.4 151.6 -33.7 165.4 -26.2C179.3 -18.7 197.7 -9.3 216 0L0 0Z" fill="#94add3"></path><path d="M0 -108C3.8 -97.1 7.6 -86.1 13.9 -87.7C20.2 -89.2 29 -103.2 33.4 -102.7C37.8 -102.3 37.8 -87.3 41.8 -82C45.8 -76.6 53.8 -80.8 56.4 -77.7C59 -74.6 56.2 -64.2 60.8 -60.8C65.4 -57.4 77.4 -61.1 77.7 -56.4C77.9 -51.8 66.4 -38.9 62.6 -31.9C58.8 -24.9 62.6 -23.7 66.8 -21.7C71.1 -19.7 75.8 -16.9 82.7 -13.1C89.7 -9.3 98.8 -4.7 108 0L0 0Z" fill="#7e9dca"></path></g></svg>