<svg id="visual" viewBox="0 0 450 680" width="450" height="680" xmlns="http://www.w3.org/2000/svg" xmlns:xlink="http://www.w3.org/1999/xlink" version="1.1"><rect x="0" y="0" width="450" height="680" fill="#ffffff"></rect><defs><linearGradient id="grad1_0" x1="0%" y1="0%" x2="100%" y2="100%"><stop offset="30%" stop-color="#7e9dca" stop-opacity="1"></stop><stop offset="70%" stop-color="#7e9dca" stop-opacity="1"></stop></linearGradient></defs><defs><linearGradient id="grad1_1" x1="0%" y1="0%" x2="100%" y2="100%"><stop offset="30%" stop-color="#7e9dca" stop-opacity="1"></stop><stop offset="70%" stop-color="#aabddc" stop-opacity="1"></stop></linearGradient></defs><defs><linearGradient id="grad1_2" x1="0%" y1="0%" x2="100%" y2="100%"><stop offset="30%" stop-color="#d5dded" stop-opacity="1"></stop><stop offset="70%" stop-color="#aabddc" stop-opacity="1"></stop></linearGradient></defs><defs><linearGradient id="grad1_3" x1="0%" y1="0%" x2="100%" y2="100%"><stop offset="30%" stop-color="#d5dded" stop-opacity="1"></stop><stop offset="70%" stop-color="#ffffff" stop-opacity="1"></stop></linearGradient></defs><defs><linearGradient id="grad2_0" x1="0%" y1="0%" x2="100%" y2="100%"><stop offset="30%" stop-color="#7e9dca" stop-opacity="1"></stop><stop offset="70%" stop-color="#7e9dca" stop-opacity="1"></stop></linearGradient></defs><defs><linearGradient id="grad2_1" x1="0%" y1="0%" x2="100%" y2="100%"><stop offset="30%" stop-color="#aabddc" stop-opacity="1"></stop><stop offset="70%" stop-color="#7e9dca" stop-opacity="1"></stop></linearGradient></defs><defs><linearGradient id="grad2_2" x1="0%" y1="0%" x2="100%" y2="100%"><stop offset="30%" stop-color="#aabddc" stop-opacity="1"></stop><stop offset="70%" stop-color="#d5dded" stop-opacity="1"></stop></linearGradient></defs><defs><linearGradient id="grad2_3" x1="0%" y1="0%" x2="100%" y2="100%"><stop offset="30%" stop-color="#ffffff" stop-opacity="1"></stop><stop offset="70%" stop-color="#d5dded" stop-opacity="1"></stop></linearGradient></defs><g transform="translate(450, 0)"><path d="M0 163.1C-9.6 166.1 -19.2 169.1 -25.5 161.1C-31.8 153 -34.7 133.9 -42.6 131.2C-50.6 128.6 -63.6 142.3 -73.5 144.3C-83.5 146.4 -90.3 136.7 -87.6 120.5C-84.8 104.4 -72.5 81.8 -75 75C-77.4 68.1 -94.8 77 -108.4 78.8C-122.1 80.5 -132 75.1 -129.2 65.8C-126.3 56.5 -110.7 43.3 -110.3 35.8C-110 28.4 -125 26.6 -136.3 21.6C-147.6 16.6 -155.4 8.3 -163.1 0L0 0Z" fill="#eaeef6"></path><path d="M0 122.3C-7.2 124.6 -14.4 126.8 -19.1 120.8C-23.8 114.8 -26 100.4 -32 98.4C-38 96.4 -47.7 106.7 -55.2 108.3C-62.6 109.8 -67.7 102.5 -65.7 90.4C-63.6 78.3 -54.4 61.4 -56.2 56.2C-58.1 51.1 -71.1 57.8 -81.3 59.1C-91.5 60.4 -99 56.3 -96.9 49.4C-94.8 42.4 -83 32.5 -82.7 26.9C-82.5 21.3 -93.7 20 -102.2 16.2C-110.7 12.4 -116.5 6.2 -122.3 0L0 0Z" fill="#bfcde5"></path><path d="M0 81.5C-4.8 83.1 -9.6 84.6 -12.8 80.5C-15.9 76.5 -17.3 67 -21.3 65.6C-25.3 64.3 -31.8 71.2 -36.8 72.2C-41.7 73.2 -45.2 68.3 -43.8 60.3C-42.4 52.2 -36.2 40.9 -37.5 37.5C-38.7 34.1 -47.4 38.5 -54.2 39.4C-61 40.3 -66 37.6 -64.6 32.9C-63.2 28.3 -55.3 21.7 -55.2 17.9C-55 14.2 -62.5 13.3 -68.2 10.8C-73.8 8.3 -77.7 4.1 -81.5 0L0 0Z" fill="#94add3"></path><path d="M0 40.8C-2.4 41.5 -4.8 42.3 -6.4 40.3C-7.9 38.3 -8.7 33.5 -10.7 32.8C-12.7 32.1 -15.9 35.6 -18.4 36.1C-20.9 36.6 -22.6 34.2 -21.9 30.1C-21.2 26.1 -18.1 20.5 -18.7 18.7C-19.4 17 -23.7 19.3 -27.1 19.7C-30.5 20.1 -33 18.8 -32.3 16.5C-31.6 14.1 -27.7 10.8 -27.6 9C-27.5 7.1 -31.2 6.7 -34.1 5.4C-36.9 4.1 -38.8 2.1 -40.8 0L0 0Z" fill="#7e9dca"></path></g><g transform="translate(0, 680)"><path d="M0 -163.1C8.2 -154.6 16.5 -146 21.6 -136.3C26.7 -126.6 28.7 -115.6 39.6 -121.7C50.4 -127.9 70.2 -151.2 74 -145.3C77.8 -139.4 65.7 -104.4 66.4 -91.4C67.2 -78.4 80.9 -87.5 86.3 -86.3C91.7 -85 88.7 -73.5 93.8 -68.2C98.9 -62.9 112 -63.9 117.6 -59.9C123.2 -56 121.2 -47 123.6 -40.2C126.1 -33.3 132.9 -28.6 140.3 -22.2C147.6 -15.9 155.3 -7.9 163.1 0L0 0Z" fill="#eaeef6"></path><path d="M0 -122.3C6.2 -115.9 12.4 -109.5 16.2 -102.2C20 -94.9 21.5 -86.7 29.7 -91.3C37.8 -95.9 52.7 -113.4 55.5 -109C58.4 -104.6 49.2 -78.3 49.8 -68.6C50.4 -58.8 60.7 -65.6 64.7 -64.7C68.7 -63.8 66.6 -55.1 70.4 -51.1C74.2 -47.2 84 -47.9 88.2 -44.9C92.4 -42 90.9 -35.3 92.7 -30.1C94.6 -25 99.7 -21.4 105.2 -16.7C110.7 -11.9 116.5 -5.9 122.3 0L0 0Z" fill="#bfcde5"></path><path d="M0 -81.5C4.1 -77.3 8.2 -73 10.8 -68.2C13.3 -63.3 14.3 -57.8 19.8 -60.9C25.2 -63.9 35.1 -75.6 37 -72.7C38.9 -69.7 32.8 -52.2 33.2 -45.7C33.6 -39.2 40.4 -43.8 43.1 -43.1C45.8 -42.5 44.4 -36.7 46.9 -34.1C49.5 -31.5 56 -31.9 58.8 -30C61.6 -28 60.6 -23.5 61.8 -20.1C63 -16.7 66.5 -14.3 70.1 -11.1C73.8 -7.9 77.7 -4 81.5 0L0 0Z" fill="#94add3"></path><path d="M0 -40.8C2.1 -38.6 4.1 -36.5 5.4 -34.1C6.7 -31.6 7.2 -28.9 9.9 -30.4C12.6 -32 17.6 -37.8 18.5 -36.3C19.5 -34.9 16.4 -26.1 16.6 -22.9C16.8 -19.6 20.2 -21.9 21.6 -21.6C22.9 -21.3 22.2 -18.4 23.5 -17C24.7 -15.7 28 -16 29.4 -15C30.8 -14 30.3 -11.8 30.9 -10C31.5 -8.3 33.2 -7.1 35.1 -5.6C36.9 -4 38.8 -2 40.8 0L0 0Z" fill="#7e9dca"></path></g></svg>