<svg id="visual" viewBox="0 0 1000 800" width="1000" height="800" xmlns="http://www.w3.org/2000/svg" xmlns:xlink="http://www.w3.org/1999/xlink" version="1.1"><rect x="0" y="0" width="1000" height="800" fill="#ffffff"></rect><defs><linearGradient id="grad1_0" x1="20%" y1="100%" x2="100%" y2="0%"><stop offset="25%" stop-color="#295ba7" stop-opacity="1"></stop><stop offset="75%" stop-color="#295ba7" stop-opacity="1"></stop></linearGradient></defs><defs><linearGradient id="grad1_1" x1="20%" y1="100%" x2="100%" y2="0%"><stop offset="25%" stop-color="#295ba7" stop-opacity="1"></stop><stop offset="75%" stop-color="#9da9d3" stop-opacity="1"></stop></linearGradient></defs><defs><linearGradient id="grad1_2" x1="20%" y1="100%" x2="100%" y2="0%"><stop offset="25%" stop-color="#ffffff" stop-opacity="1"></stop><stop offset="75%" stop-color="#9da9d3" stop-opacity="1"></stop></linearGradient></defs><defs><linearGradient id="grad2_0" x1="0%" y1="100%" x2="80%" y2="0%"><stop offset="25%" stop-color="#295ba7" stop-opacity="1"></stop><stop offset="75%" stop-color="#295ba7" stop-opacity="1"></stop></linearGradient></defs><defs><linearGradient id="grad2_1" x1="0%" y1="100%" x2="80%" y2="0%"><stop offset="25%" stop-color="#9da9d3" stop-opacity="1"></stop><stop offset="75%" stop-color="#295ba7" stop-opacity="1"></stop></linearGradient></defs><defs><linearGradient id="grad2_2" x1="0%" y1="100%" x2="80%" y2="0%"><stop offset="25%" stop-color="#9da9d3" stop-opacity="1"></stop><stop offset="75%" stop-color="#ffffff" stop-opacity="1"></stop></linearGradient></defs><g transform="translate(1000, 800)"><path d="M-320.2 0C-272 -10.1 -223.8 -20.1 -220.3 -34.9C-216.7 -49.6 -257.7 -69 -278.7 -90.5C-299.6 -112 -300.6 -135.6 -285.3 -145.3C-269.9 -155.1 -238.3 -151 -229.8 -166.9C-221.3 -182.9 -236 -219 -217.1 -217.1C-198.2 -215.2 -145.8 -175.3 -125.2 -172.3C-104.6 -169.4 -115.8 -203.3 -113 -221.9C-110.3 -240.4 -93.5 -243.4 -79.1 -243.5C-64.7 -243.5 -52.8 -240.6 -40 -252.8C-27.3 -265.1 -13.6 -292.6 0 -320.2L0 0Z" fill="#ced3e9"></path><path d="M-213.4 0C-181.3 -6.7 -149.2 -13.4 -146.8 -23.3C-144.4 -33.1 -171.8 -46 -185.8 -60.4C-199.8 -74.7 -200.4 -90.4 -190.2 -96.9C-179.9 -103.4 -158.8 -100.6 -153.2 -111.3C-147.5 -121.9 -157.3 -146 -144.7 -144.7C-132.1 -143.4 -97.2 -116.9 -83.5 -114.9C-69.7 -112.9 -77.2 -135.6 -75.4 -147.9C-73.5 -160.3 -62.3 -162.3 -52.7 -162.3C-43.2 -162.3 -35.2 -160.4 -26.7 -168.6C-18.2 -176.8 -9.1 -195.1 0 -213.4L0 0Z" fill="#6a81bd"></path><path d="M-106.7 0C-90.7 -3.4 -74.6 -6.7 -73.4 -11.6C-72.2 -16.5 -85.9 -23 -92.9 -30.2C-99.9 -37.3 -100.2 -45.2 -95.1 -48.4C-90 -51.7 -79.4 -50.3 -76.6 -55.6C-73.8 -61 -78.7 -73 -72.4 -72.4C-66.1 -71.7 -48.6 -58.4 -41.7 -57.4C-34.9 -56.5 -38.6 -67.8 -37.7 -74C-36.8 -80.1 -31.2 -81.1 -26.4 -81.2C-21.6 -81.2 -17.6 -80.2 -13.3 -84.3C-9.1 -88.4 -4.5 -97.5 0 -106.7L0 0Z" fill="#295ba7"></path></g><g transform="translate(0, 0)"><path d="M320.2 0C295.4 13.3 270.5 26.5 264.7 41.9C258.9 57.3 272 74.8 271.1 88.1C270.1 101.4 255.2 110.5 253.9 129.4C252.7 148.3 265.3 177 250 181.6C234.7 186.3 191.7 166.8 180.3 180.3C169 193.8 189.3 240.3 180.5 248.4C171.6 256.5 133.4 226.3 114.4 224.5C95.4 222.8 95.4 249.5 88.1 271.1C80.7 292.6 66 308.9 50.1 316.2C34.2 323.5 17.1 321.8 0 320.2L0 0Z" fill="#ced3e9"></path><path d="M213.4 0C196.9 8.8 180.4 17.7 176.5 27.9C172.6 38.2 181.3 49.8 180.7 58.7C180.1 67.6 170.1 73.7 169.3 86.3C168.5 98.9 176.8 118 166.7 121.1C156.5 124.2 127.8 111.2 120.2 120.2C112.6 129.2 126.2 160.2 120.3 165.6C114.4 171 89 150.8 76.3 149.7C63.6 148.5 63.6 166.4 58.7 180.7C53.8 195.1 44 205.9 33.4 210.8C22.8 215.7 11.4 214.6 0 213.4L0 0Z" fill="#6a81bd"></path><path d="M106.7 0C98.5 4.4 90.2 8.8 88.2 14C86.3 19.1 90.7 24.9 90.4 29.4C90 33.8 85.1 36.8 84.6 43.1C84.2 49.4 88.4 59 83.3 60.5C78.2 62.1 63.9 55.6 60.1 60.1C56.3 64.6 63.1 80.1 60.2 82.8C57.2 85.5 44.5 75.4 38.1 74.8C31.8 74.3 31.8 83.2 29.4 90.4C26.9 97.5 22 103 16.7 105.4C11.4 107.8 5.7 107.3 0 106.7L0 0Z" fill="#295ba7"></path></g></svg>