<svg id="visual" viewBox="0 0 1920 1280" width="1920" height="1280" xmlns="http://www.w3.org/2000/svg" xmlns:xlink="http://www.w3.org/1999/xlink" version="1.1"><rect x="0" y="0" width="1920" height="1280" fill="#ffffff"></rect><defs><linearGradient id="grad1_0" x1="33.3%" y1="0%" x2="100%" y2="100%"><stop offset="20%" stop-color="#7e9dca" stop-opacity="1"></stop><stop offset="80%" stop-color="#7e9dca" stop-opacity="1"></stop></linearGradient></defs><defs><linearGradient id="grad1_1" x1="33.3%" y1="0%" x2="100%" y2="100%"><stop offset="20%" stop-color="#7e9dca" stop-opacity="1"></stop><stop offset="80%" stop-color="#aabddc" stop-opacity="1"></stop></linearGradient></defs><defs><linearGradient id="grad1_2" x1="33.3%" y1="0%" x2="100%" y2="100%"><stop offset="20%" stop-color="#d5dded" stop-opacity="1"></stop><stop offset="80%" stop-color="#aabddc" stop-opacity="1"></stop></linearGradient></defs><defs><linearGradient id="grad1_3" x1="33.3%" y1="0%" x2="100%" y2="100%"><stop offset="20%" stop-color="#d5dded" stop-opacity="1"></stop><stop offset="80%" stop-color="#ffffff" stop-opacity="1"></stop></linearGradient></defs><defs><linearGradient id="grad2_0" x1="0%" y1="0%" x2="66.7%" y2="100%"><stop offset="20%" stop-color="#7e9dca" stop-opacity="1"></stop><stop offset="80%" stop-color="#7e9dca" stop-opacity="1"></stop></linearGradient></defs><defs><linearGradient id="grad2_1" x1="0%" y1="0%" x2="66.7%" y2="100%"><stop offset="20%" stop-color="#aabddc" stop-opacity="1"></stop><stop offset="80%" stop-color="#7e9dca" stop-opacity="1"></stop></linearGradient></defs><defs><linearGradient id="grad2_2" x1="0%" y1="0%" x2="66.7%" y2="100%"><stop offset="20%" stop-color="#aabddc" stop-opacity="1"></stop><stop offset="80%" stop-color="#d5dded" stop-opacity="1"></stop></linearGradient></defs><defs><linearGradient id="grad2_3" x1="0%" y1="0%" x2="66.7%" y2="100%"><stop offset="20%" stop-color="#ffffff" stop-opacity="1"></stop><stop offset="80%" stop-color="#d5dded" stop-opacity="1"></stop></linearGradient></defs><g transform="translate(1920, 0)"><path d="M0 461.5C-23.4 460 -46.9 458.4 -72.2 455.8C-97.5 453.3 -124.7 449.7 -136 418.5C-147.3 387.3 -142.7 328.4 -158 310.1C-173.3 291.7 -208.5 313.8 -219.8 302.6C-231.1 291.3 -218.5 246.6 -229.8 229.8C-241.2 213 -276.5 224 -309 224.5C-341.6 225.1 -371.3 215.2 -384 195.7C-396.7 176.1 -392.4 146.9 -370.9 120.5C-349.4 94.2 -310.7 70.8 -323 51.2C-335.2 31.6 -398.4 15.8 -461.5 0L0 0Z" fill="#eaeef6"></path><path d="M0 346.1C-17.6 345 -35.2 343.8 -54.1 341.9C-73.1 339.9 -93.5 337.3 -102 313.8C-110.4 290.4 -107 246.3 -118.5 232.6C-130 218.8 -156.4 235.4 -164.9 226.9C-173.3 218.5 -163.8 185 -172.4 172.4C-180.9 159.7 -207.4 168 -231.8 168.4C-256.2 168.8 -278.5 161.4 -288 146.8C-297.5 132.1 -294.3 110.1 -278.2 90.4C-262.1 70.6 -233.1 53.1 -242.2 38.4C-251.4 23.7 -298.8 11.8 -346.1 0L0 0Z" fill="#bfcde5"></path><path d="M0 230.8C-11.7 230 -23.4 229.2 -36.1 227.9C-48.8 226.6 -62.3 224.8 -68 209.2C-73.6 193.6 -71.3 164.2 -79 155C-86.7 145.9 -104.3 156.9 -109.9 151.3C-115.6 145.7 -109.2 123.3 -114.9 114.9C-120.6 106.5 -138.3 112 -154.5 112.3C-170.8 112.5 -185.7 107.6 -192 97.8C-198.4 88.1 -196.2 73.4 -185.5 60.3C-174.7 47.1 -155.4 35.4 -161.5 25.6C-167.6 15.8 -199.2 7.9 -230.8 0L0 0Z" fill="#94add3"></path><path d="M0 115.4C-5.9 115 -11.7 114.6 -18 114C-24.4 113.3 -31.2 112.4 -34 104.6C-36.8 96.8 -35.7 82.1 -39.5 77.5C-43.3 72.9 -52.1 78.5 -55 75.6C-57.8 72.8 -54.6 61.7 -57.5 57.5C-60.3 53.2 -69.1 56 -77.3 56.1C-85.4 56.3 -92.8 53.8 -96 48.9C-99.2 44 -98.1 36.7 -92.7 30.1C-87.4 23.5 -77.7 17.7 -80.7 12.8C-83.8 7.9 -99.6 3.9 -115.4 0L0 0Z" fill="#7e9dca"></path></g><g transform="translate(0, 1280)"><path d="M0 -461.5C24.6 -463.2 49.3 -464.8 72.2 -455.8C95.1 -446.9 116.2 -427.3 130.1 -400.4C144 -373.5 150.5 -339.4 168 -329.7C185.4 -319.9 213.7 -334.6 248 -341.4C282.4 -348.2 322.7 -347.1 308.3 -308.3C293.9 -269.5 224.7 -192.9 241.9 -175.7C259.1 -158.6 362.7 -200.8 377.8 -192.5C392.9 -184.2 319.5 -125.4 291 -94.6C262.6 -63.8 279.2 -61 315.1 -49.9C351 -38.8 406.2 -19.4 461.5 0L0 0Z" fill="#eaeef6"></path><path d="M0 -346.1C18.5 -347.4 37 -348.6 54.1 -341.9C71.3 -335.1 87.2 -320.4 97.6 -300.3C108 -280.1 112.9 -254.6 126 -247.3C139.1 -240 160.3 -251 186 -256.1C211.8 -261.1 242 -260.3 231.2 -231.2C220.4 -202.1 168.5 -144.7 181.4 -131.8C194.3 -118.9 272 -150.6 283.3 -144.4C294.7 -138.1 239.6 -94 218.3 -70.9C196.9 -47.8 209.4 -45.7 236.3 -37.4C263.2 -29.1 304.7 -14.6 346.1 0L0 0Z" fill="#bfcde5"></path><path d="M0 -230.8C12.3 -231.6 24.6 -232.4 36.1 -227.9C47.5 -223.4 58.1 -213.6 65 -200.2C72 -186.8 75.3 -169.7 84 -164.8C92.7 -160 106.9 -167.3 124 -170.7C141.2 -174.1 161.4 -173.6 154.1 -154.1C146.9 -134.7 112.3 -96.5 120.9 -87.9C129.6 -79.3 181.3 -100.4 188.9 -96.2C196.4 -92.1 159.7 -62.7 145.5 -47.3C131.3 -31.9 139.6 -30.5 157.5 -25C175.5 -19.4 203.1 -9.7 230.8 0L0 0Z" fill="#94add3"></path><path d="M0 -115.4C6.2 -115.8 12.3 -116.2 18 -114C23.8 -111.7 29.1 -106.8 32.5 -100.1C36 -93.4 37.6 -84.9 42 -82.4C46.4 -80 53.4 -83.7 62 -85.4C70.6 -87 80.7 -86.8 77.1 -77.1C73.5 -67.4 56.2 -48.2 60.5 -43.9C64.8 -39.6 90.7 -50.2 94.4 -48.1C98.2 -46 79.9 -31.3 72.8 -23.6C65.6 -15.9 69.8 -15.2 78.8 -12.5C87.7 -9.7 101.6 -4.9 115.4 0L0 0Z" fill="#7e9dca"></path></g></svg>