<svg id="visual" viewBox="0 0 1000 900" width="1000" height="900" xmlns="http://www.w3.org/2000/svg" xmlns:xlink="http://www.w3.org/1999/xlink" version="1.1"><rect x="0" y="0" width="1000" height="900" fill="#ffffff"></rect><defs><linearGradient id="grad1_0" x1="10%" y1="100%" x2="100%" y2="0%"><stop offset="27.777777777777775%" stop-color="#81fab8" stop-opacity="1"></stop><stop offset="72.22222222222223%" stop-color="#81fab8" stop-opacity="1"></stop></linearGradient></defs><defs><linearGradient id="grad1_1" x1="10%" y1="100%" x2="100%" y2="0%"><stop offset="27.777777777777775%" stop-color="#81fab8" stop-opacity="1"></stop><stop offset="72.22222222222223%" stop-color="#b1fdd0" stop-opacity="1"></stop></linearGradient></defs><defs><linearGradient id="grad1_2" x1="10%" y1="100%" x2="100%" y2="0%"><stop offset="27.777777777777775%" stop-color="#d9fee7" stop-opacity="1"></stop><stop offset="72.22222222222223%" stop-color="#b1fdd0" stop-opacity="1"></stop></linearGradient></defs><defs><linearGradient id="grad1_3" x1="10%" y1="100%" x2="100%" y2="0%"><stop offset="27.777777777777775%" stop-color="#d9fee7" stop-opacity="1"></stop><stop offset="72.22222222222223%" stop-color="#ffffff" stop-opacity="1"></stop></linearGradient></defs><defs><linearGradient id="grad2_0" x1="0%" y1="100%" x2="90%" y2="0%"><stop offset="27.777777777777775%" stop-color="#81fab8" stop-opacity="1"></stop><stop offset="72.22222222222223%" stop-color="#81fab8" stop-opacity="1"></stop></linearGradient></defs><defs><linearGradient id="grad2_1" x1="0%" y1="100%" x2="90%" y2="0%"><stop offset="27.777777777777775%" stop-color="#b1fdd0" stop-opacity="1"></stop><stop offset="72.22222222222223%" stop-color="#81fab8" stop-opacity="1"></stop></linearGradient></defs><defs><linearGradient id="grad2_2" x1="0%" y1="100%" x2="90%" y2="0%"><stop offset="27.777777777777775%" stop-color="#b1fdd0" stop-opacity="1"></stop><stop offset="72.22222222222223%" stop-color="#d9fee7" stop-opacity="1"></stop></linearGradient></defs><defs><linearGradient id="grad2_3" x1="0%" y1="100%" x2="90%" y2="0%"><stop offset="27.777777777777775%" stop-color="#ffffff" stop-opacity="1"></stop><stop offset="72.22222222222223%" stop-color="#d9fee7" stop-opacity="1"></stop></linearGradient></defs><g transform="translate(1000, 900)"><path d="M-302.7 0C-265.2 -8.6 -227.7 -17.1 -215.4 -26.2C-203.1 -35.2 -216 -44.8 -216.5 -53.4C-217 -62 -205.2 -69.6 -192.6 -73C-180.1 -76.5 -166.8 -75.6 -181.5 -95.3C-196.2 -114.9 -238.9 -155 -232.1 -160.2C-225.3 -165.4 -169.1 -135.9 -146.7 -130C-124.4 -124.1 -135.9 -141.9 -145.9 -164.7C-155.9 -187.4 -164.3 -215.1 -165.9 -240.3C-167.5 -265.5 -162.3 -288.2 -140.7 -268C-119.1 -247.9 -81 -184.9 -63.1 -166.4C-45.3 -148 -47.6 -174 -43.8 -177.7C-40 -181.3 -30.1 -162.6 -21.8 -179.7C-13.5 -196.8 -6.8 -249.7 0 -302.7L0 0Z" fill="#ecfff3"></path><path d="M-227 0C-198.9 -6.4 -170.8 -12.8 -161.6 -19.6C-152.3 -26.4 -162 -33.6 -162.4 -40C-162.8 -46.5 -153.9 -52.2 -144.5 -54.8C-135 -57.4 -125.1 -56.7 -136.1 -71.5C-147.2 -86.2 -179.2 -116.2 -174.1 -120.1C-169 -124.1 -126.8 -101.9 -110 -97.5C-93.3 -93.1 -101.9 -106.4 -109.4 -123.5C-116.9 -140.6 -123.2 -161.3 -124.4 -180.2C-125.6 -199.1 -121.7 -216.1 -105.5 -201C-89.3 -185.9 -60.7 -138.7 -47.3 -124.8C-33.9 -111 -35.7 -130.5 -32.8 -133.3C-30 -136 -22.6 -121.9 -16.4 -134.8C-10.1 -147.6 -5.1 -187.3 0 -227L0 0Z" fill="#c5fedb"></path><path d="M-151.4 0C-132.6 -4.3 -113.9 -8.6 -107.7 -13.1C-101.6 -17.6 -108 -22.4 -108.3 -26.7C-108.5 -31 -102.6 -34.8 -96.3 -36.5C-90 -38.2 -83.4 -37.8 -90.8 -47.6C-98.1 -57.4 -119.4 -77.5 -116 -80.1C-112.6 -82.7 -84.5 -67.9 -73.4 -65C-62.2 -62 -68 -71 -72.9 -82.3C-77.9 -93.7 -82.1 -107.6 -82.9 -120.2C-83.7 -132.7 -81.1 -144.1 -70.3 -134C-59.5 -123.9 -40.5 -92.4 -31.6 -83.2C-22.6 -74 -23.8 -87 -21.9 -88.8C-20 -90.7 -15.1 -81.3 -10.9 -89.8C-6.8 -98.4 -3.4 -124.9 0 -151.4L0 0Z" fill="#9afbc4"></path><path d="M-75.7 0C-66.3 -2.1 -56.9 -4.3 -53.9 -6.5C-50.8 -8.8 -54 -11.2 -54.1 -13.3C-54.3 -15.5 -51.3 -17.4 -48.2 -18.3C-45 -19.1 -41.7 -18.9 -45.4 -23.8C-49.1 -28.7 -59.7 -38.7 -58 -40C-56.3 -41.4 -42.3 -34 -36.7 -32.5C-31.1 -31 -34 -35.5 -36.5 -41.2C-39 -46.9 -41.1 -53.8 -41.5 -60.1C-41.9 -66.4 -40.6 -72 -35.2 -67C-29.8 -62 -20.2 -46.2 -15.8 -41.6C-11.3 -37 -11.9 -43.5 -10.9 -44.4C-10 -45.3 -7.5 -40.6 -5.5 -44.9C-3.4 -49.2 -1.7 -62.4 0 -75.7L0 0Z" fill="#81fab8"></path></g><g transform="translate(0, 0)"><path d="M302.7 0C307.7 13.5 312.7 27 290.9 35.3C269.1 43.6 220.5 46.8 186.4 45.9C152.3 45.1 132.8 40.2 156.1 59.2C179.5 78.2 245.9 121 246.2 129.2C246.4 137.4 180.5 110.9 159.7 110.2C138.9 109.5 163.2 134.4 173.7 153.8C184.2 173.3 180.8 187.1 175.1 197.6C169.3 208.1 161 215.1 153.4 222.2C145.7 229.3 138.6 236.3 132.9 253.2C127.2 270.2 122.8 297 107.3 283C91.8 269.1 65.2 214.4 52.6 213.6C40.1 212.8 41.6 266 35.2 289.9C28.8 313.7 14.4 308.2 0 302.7L0 0Z" fill="#ecfff3"></path><path d="M227 0C230.8 10.1 234.5 20.2 218.1 26.5C201.8 32.7 165.4 35.1 139.8 34.5C114.3 33.8 99.6 30.2 117.1 44.4C134.7 58.6 184.4 90.8 184.6 96.9C184.8 103 135.3 83.2 119.7 82.7C104.1 82.1 122.4 100.8 130.2 115.4C138.1 129.9 135.6 140.4 131.3 148.2C127 156.1 120.8 161.4 115 166.7C109.3 171.9 104 177.2 99.7 189.9C95.4 202.6 92.1 222.7 80.5 212.3C68.9 201.8 48.9 160.8 39.5 160.2C30.1 159.6 31.2 199.5 26.4 217.4C21.6 235.3 10.8 231.2 0 227L0 0Z" fill="#c5fedb"></path><path d="M151.4 0C153.8 6.7 156.3 13.5 145.4 17.7C134.5 21.8 110.2 23.4 93.2 23C76.2 22.5 66.4 20.1 78.1 29.6C89.8 39.1 123 60.5 123.1 64.6C123.2 68.7 90.2 55.5 79.8 55.1C69.4 54.7 81.6 67.2 86.8 76.9C92.1 86.6 90.4 93.6 87.5 98.8C84.6 104 80.5 107.6 76.7 111.1C72.9 114.6 69.3 118.2 66.5 126.6C63.6 135.1 61.4 148.5 53.7 141.5C45.9 134.5 32.6 107.2 26.3 106.8C20 106.4 20.8 133 17.6 144.9C14.4 156.9 7.2 154.1 0 151.4L0 0Z" fill="#9afbc4"></path><path d="M75.7 0C76.9 3.4 78.2 6.7 72.7 8.8C67.3 10.9 55.1 11.7 46.6 11.5C38.1 11.3 33.2 10.1 39 14.8C44.9 19.5 61.5 30.3 61.5 32.3C61.6 34.3 45.1 27.7 39.9 27.6C34.7 27.4 40.8 33.6 43.4 38.5C46 43.3 45.2 46.8 43.8 49.4C42.3 52 40.3 53.8 38.3 55.6C36.4 57.3 34.7 59.1 33.2 63.3C31.8 67.5 30.7 74.2 26.8 70.8C23 67.3 16.3 53.6 13.2 53.4C10 53.2 10.4 66.5 8.8 72.5C7.2 78.4 3.6 77.1 0 75.7L0 0Z" fill="#81fab8"></path></g></svg>