<svg id="visual" viewBox="0 0 1920 1280" width="1920" height="1280" xmlns="http://www.w3.org/2000/svg" xmlns:xlink="http://www.w3.org/1999/xlink" version="1.1"><rect x="0" y="0" width="1920" height="1280" fill="#bbf7d0"></rect><path d="M0 701L64 729.7C128 758.3 256 815.7 384 848C512 880.3 640 887.7 768 850.2C896 812.7 1024 730.3 1152 680.8C1280 631.3 1408 614.7 1536 619.8C1664 625 1792 652 1856 665.5L1920 679L1920 1281L1856 1281C1792 1281 1664 1281 1536 1281C1408 1281 1280 1281 1152 1281C1024 1281 896 1281 768 1281C640 1281 512 1281 384 1281C256 1281 128 1281 64 1281L0 1281Z" fill="#6ee7b7"></path><path d="M0 856L64 880.3C128 904.7 256 953.3 384 973.7C512 994 640 986 768 955.7C896 925.3 1024 872.7 1152 870.8C1280 869 1408 918 1536 912.8C1664 907.7 1792 848.3 1856 818.7L1920 789L1920 1281L1856 1281C1792 1281 1664 1281 1536 1281C1408 1281 1280 1281 1152 1281C1024 1281 896 1281 768 1281C640 1281 512 1281 384 1281C256 1281 128 1281 64 1281L0 1281Z" fill="#52cc9c"></path><path d="M0 990L64 1008.5C128 1027 256 1064 384 1074C512 1084 640 1067 768 1033.2C896 999.3 1024 948.7 1152 921C1280 893.3 1408 888.7 1536 926.7C1664 964.7 1792 1045.3 1856 1085.7L1920 1126L1920 1281L1856 1281C1792 1281 1664 1281 1536 1281C1408 1281 1280 1281 1152 1281C1024 1281 896 1281 768 1281C640 1281 512 1281 384 1281C256 1281 128 1281 64 1281L0 1281Z" fill="#33b082"></path><path d="M0 1155L64 1136C128 1117 256 1079 384 1060C512 1041 640 1041 768 1043.2C896 1045.3 1024 1049.7 1152 1064.3C1280 1079 1408 1104 1536 1118C1664 1132 1792 1135 1856 1136.5L1920 1138L1920 1281L1856 1281C1792 1281 1664 1281 1536 1281C1408 1281 1280 1281 1152 1281C1024 1281 896 1281 768 1281C640 1281 512 1281 384 1281C256 1281 128 1281 64 1281L0 1281Z" fill="#059669"></path></svg>