<?xml version="1.0" standalone="no"?><svg xmlns="http://www.w3.org/2000/svg" viewBox="0 0 1440 320"><path fill="#156295" fill-opacity="0.5" d="M0,224L40,208C80,192,160,160,240,165.3C320,171,400,213,480,224C560,235,640,213,720,181.3C800,149,880,107,960,106.7C1040,107,1120,149,1200,165.3C1280,181,1360,171,1400,165.3L1440,160L1440,320L1400,320C1360,320,1280,320,1200,320C1120,320,1040,320,960,320C880,320,800,320,720,320C640,320,560,320,480,320C400,320,320,320,240,320C160,320,80,320,40,320L0,320Z"></path></svg>