<?xml version="1.0" standalone="no"?><svg xmlns="http://www.w3.org/2000/svg" viewBox="0 0 1440 320"><path fill="#156295" fill-opacity="0.5" d="M0,224L40,213.3C80,203,160,181,240,181.3C320,181,400,203,480,218.7C560,235,640,245,720,250.7C800,256,880,256,960,224C1040,192,1120,128,1200,101.3C1280,75,1360,85,1400,90.7L1440,96L1440,320L1400,320C1360,320,1280,320,1200,320C1120,320,1040,320,960,320C880,320,800,320,720,320C640,320,560,320,480,320C400,320,320,320,240,320C160,320,80,320,40,320L0,320Z"></path></svg>