<?xml version="1.0" standalone="no"?><svg xmlns="http://www.w3.org/2000/svg" viewBox="0 0 1440 320"><path fill="#86efac" fill-opacity="1" d="M0,0L40,32C80,64,160,128,240,138.7C320,149,400,107,480,112C560,117,640,171,720,186.7C800,203,880,181,960,154.7C1040,128,1120,96,1200,90.7C1280,85,1360,107,1400,117.3L1440,128L1440,320L1400,320C1360,320,1280,320,1200,320C1120,320,1040,320,960,320C880,320,800,320,720,320C640,320,560,320,480,320C400,320,320,320,240,320C160,320,80,320,40,320L0,320Z"></path></svg>